<svg width="252" height="62" viewBox="0 0 252 62" fill="none" xmlns="http://www.w3.org/2000/svg">
<g clip-path="url(#clip0_270_9)">
<path d="M18.7999 28.9524C18.1305 28.9524 17.6805 29.4258 17.6805 30.1413V33.7521C17.6805 38.0124 17.5159 40.7425 19.5791 40.7425C20.0291 40.7425 20.5888 40.5664 21.2583 40.3242C22.8276 39.7298 22.9374 43.3406 21.2583 43.3406C16.8903 43.3406 15.2661 42.7461 11.2384 42.7461C7.21069 42.7461 5.58645 43.3406 1.21853 43.3406C-0.460588 43.3406 -0.350841 39.7298 1.21853 40.3242C1.88799 40.5664 2.4477 40.6765 2.89766 40.6765C5.02674 40.6765 4.79627 38.0124 4.79627 33.7521V9.88565C4.79627 5.62535 5.01576 2.89524 2.89766 2.89524C2.4477 2.89524 1.88799 3.07138 1.21853 3.31357C-0.350841 3.90803 -0.460588 0.29723 1.21853 0.29723C5.58645 0.29723 7.21069 0.89169 11.2384 0.89169C15.2661 0.89169 16.8903 0 21.2583 0C32.6829 0 38.2799 5.80149 38.2799 14.0359C38.2799 22.2702 31.6183 28.9524 19.5791 28.9524H18.7999ZM17.6805 24.8022C17.6805 25.5178 18.1305 25.9911 18.7999 25.9911H19.5791C22.7179 25.9911 24.836 19.2979 24.836 13.1442C24.836 7.87109 23.6617 2.96129 21.2583 2.96129C17.1098 2.96129 17.6805 4.73366 17.6805 9.88565V24.8022Z" fill="white"/>
<path d="M64.5881 8.11275C62.009 8.11275 58.7056 13.9803 57.6411 16.5233C56.3571 19.6056 55.4571 23.0403 55.4571 26.3539V36.1294C55.4571 39.3219 55.6218 41.1053 57.3558 41.1053C57.8057 41.1053 58.3654 40.9842 59.0349 40.753C59.8141 40.4558 60.264 41.1053 60.264 41.8759C60.264 42.5914 59.869 43.362 59.0349 43.362C54.667 43.362 53.6024 42.7676 49.5747 42.7676C45.547 42.7676 44.4825 43.362 40.1146 43.362C39.2695 43.362 38.8854 42.5914 38.8854 41.8759C38.8854 41.2264 39.2256 40.687 39.7853 40.687C39.8951 40.687 40.0048 40.687 40.1256 40.742C40.795 40.9732 41.2998 41.0943 41.7498 41.0943C43.9338 41.0943 43.7143 38.2541 43.7143 33.7516V22.7981C43.7143 19.8368 43.4948 17.8883 41.4754 17.8883C40.9706 17.8883 40.356 18.0094 39.5768 18.3066C38.7976 18.6039 38.3477 17.8883 38.3477 17.1838C38.3477 16.4792 38.7427 15.7086 39.5768 15.7086C44.1642 15.7086 48.7626 13.9363 53.2403 13.0996C54.5792 12.8024 55.4791 13.7491 55.4791 15.2353C56.6534 12.3951 62.7004 0.0214844 71.9959 0.0214844C75.6944 0.0214844 78.1527 2.98278 78.1527 6.53853C78.1527 10.5016 75.2444 13.0556 71.9959 13.0556C69.6474 13.0556 67.4634 11.8116 66.5635 9.79705C66.0038 8.60813 65.3343 8.13477 64.599 8.13477L64.5881 8.11275ZM78.1308 33.8727C78.1308 38.3752 77.9662 41.0392 80.0294 41.0392C80.4794 41.0392 81.0391 40.9181 81.7085 40.687C83.2779 40.0925 83.3876 43.296 81.7085 43.296C77.3406 43.296 76.2761 42.7015 72.2484 42.7015C68.2207 42.7015 67.1561 43.296 62.7882 43.296C61.1091 43.296 61.2188 40.1035 62.7882 40.687C63.4577 40.9292 64.0174 41.0392 64.4673 41.0392C66.5415 41.0392 66.366 38.4302 66.366 33.8727V22.7431C66.366 19.7818 66.4757 17.8333 64.632 17.8333C64.1271 17.8333 63.5674 18.0094 62.7882 18.2516C61.2188 18.78 61.1091 15.6426 62.7882 15.6426C70.9643 15.6426 72.6435 15.1142 76.0566 13.628C76.3968 13.4519 76.6712 13.3968 76.9565 13.3968C77.6808 13.3968 78.1308 13.9913 78.1308 15.0591V33.8727Z" fill="white"/>
<path d="M100.077 15.2789C101.811 13.8038 104.336 13.0332 106.904 13.0332C109.988 13.0332 112.951 14.2221 114.685 17.0623C116.144 14.5194 119.557 13.0332 122.971 13.0332C127.679 13.0332 132.211 15.8734 132.211 23.04V34.4118C132.211 35.7108 133.221 36.7786 134.231 36.7786C134.79 36.7786 135.405 36.3603 135.69 35.3585C135.8 35.0062 136.03 34.8301 136.305 34.8301C136.645 34.8301 137.084 35.1824 137.029 35.7218C136.579 40.9949 132.442 43.714 128.469 43.714C124.496 43.714 120.468 40.9949 120.468 35.3695V23.6454C120.468 18.9668 119.064 17.0733 117.889 17.0733C116.935 17.0733 116.155 18.1412 116.155 19.9135V33.2999C116.155 38.1547 115.815 41.1159 118.054 41.1159C118.504 41.1159 119.064 40.9948 119.733 40.7637C121.302 40.1692 121.412 43.3727 119.733 43.3727C115.365 43.3727 114.301 42.7782 110.273 42.7782C108.089 42.7782 105.631 43.3727 103.666 43.3727H100.813C98.8483 43.3727 96.4449 42.7782 94.206 42.7782C90.1783 42.7782 89.1138 43.3727 84.7459 43.3727C83.0668 43.3727 83.1765 40.1802 84.7459 40.7637C85.4153 40.9948 85.975 41.1159 86.425 41.1159C88.5541 41.1159 88.3236 38.3308 88.3236 33.7733V22.8198C88.3236 19.8585 88.4334 17.91 86.5896 17.91C86.0848 17.91 85.5251 18.0861 84.7459 18.3283C83.1765 18.8567 83.0668 15.7193 84.7459 15.7193C89.2784 15.7193 93.5366 13.9469 97.8496 13.1103C99.1885 12.813 100.088 13.7047 100.088 15.1248V15.301L100.077 15.2789ZM101.811 17.0513C100.857 17.0513 100.077 18.1191 100.077 19.8915V33.7512C100.077 35.8208 99.4629 41.0939 102.261 41.0939C104.665 41.0939 104.391 37.362 104.391 35.3475V23.6234C104.391 18.9448 102.986 17.0513 101.811 17.0513Z" fill="white"/>
<path d="M153.25 19.8929V33.7526C153.25 38.3762 153.031 41.1503 155.149 41.1503C155.599 41.1503 156.159 40.9742 156.828 40.732C158.398 40.1375 158.507 43.341 156.828 43.341C152.46 43.341 151.396 42.7465 147.368 42.7465C143.34 42.7465 142.276 43.341 137.908 43.341C136.229 43.341 136.339 40.1485 137.908 40.732C138.522 40.9632 139.082 41.0843 139.532 41.0843C141.716 41.0843 141.551 38.2441 141.497 33.7416V22.7881C141.497 19.8268 141.277 17.8783 139.258 17.8783C138.753 17.8783 138.138 18.0544 137.359 18.2966C135.79 18.825 135.68 15.6876 137.359 15.6876C141.947 15.6876 146.545 13.9152 151.023 13.0786C152.362 12.7813 153.261 13.673 153.261 15.0931V15.2142C154.995 13.7281 157.399 13.0235 159.704 13.0235C163.402 13.0235 167.035 15.2142 167.035 19.1773C167.035 22.667 164.401 25.3971 161.207 25.3971C158.013 25.3971 155.325 22.678 155.325 19.1773C155.325 18.9461 155.325 18.6489 155.38 18.3517C155.434 17.5811 155.27 17.1627 154.93 17.1627C154.03 17.1627 153.25 19.1112 153.25 19.8818V19.8929Z" fill="white"/>
<path d="M197.643 29.1937C197.643 37.1859 192.66 43.7029 183.035 43.7029C173.411 43.7029 167.309 35.4135 167.309 27.4764C167.309 19.5392 172.236 13.0332 181.916 13.0332C191.595 13.0332 197.643 21.2676 197.643 29.1937ZM186.778 38.0115C186.778 32.0339 182.355 15.8074 179.106 15.8074C178.272 15.8074 177.987 16.9302 177.987 18.3503C177.987 22.5005 182.124 40.9068 185.823 40.9068C186.668 40.9068 186.778 39.7839 186.778 38.0005V38.0115Z" fill="white"/>
<path d="M213.545 36.8336C213.545 31.8578 198.872 32.7495 198.872 22.1483C198.872 16.1706 207.103 13.0332 214.105 13.0332C221.107 13.0332 223.51 15.9945 223.51 18.7797C223.51 21.2676 221.546 23.5794 218.923 23.5794C215.96 23.5794 213.831 21.4437 213.831 18.7797C213.831 18.0751 213.995 17.2385 214.39 16.4679C214.676 15.8184 214.5 15.4661 213.831 15.5211C211.702 15.6973 209.913 16.7651 209.913 19.7264C209.913 25.9462 224.52 23.106 224.52 33.5201C224.52 40.3343 216.179 43.7029 209.013 43.7029C203.58 43.7029 198.773 41.7434 198.773 37.8464C198.773 34.5328 201.298 32.8155 203.756 32.8155C206.84 32.8155 208.684 35.2484 208.684 37.9015C208.684 38.6721 208.519 39.4977 208.179 40.2683C207.839 40.9728 208.069 41.3361 208.684 41.2701C211.482 41.0939 213.556 39.5527 213.556 36.8336H213.545Z" fill="white"/>
<path d="M245.394 33.5096C247.238 33.5096 249.148 32.6179 250.827 31.0217C251.277 30.6033 252.056 30.7795 252.001 31.495C251.441 39.5423 245.559 43.6925 239.512 43.6925C232.631 43.6925 225.574 38.3643 225.574 27.3448C225.574 20.0021 230.337 13.0117 240.017 13.0117C244.604 13.0117 250.146 14.9602 250.146 20.5856C250.146 25.7376 245.329 28.0494 238.952 28.9961C238.283 29.1172 238.052 29.5906 238.448 30.185C239.852 32.1445 242.025 33.4986 245.394 33.4986V33.5096ZM239.852 18.6481C239.852 16.8757 239.567 15.5657 238.897 15.5657C237.328 15.5657 236.264 18.4719 236.264 21.8406C236.264 22.9634 236.373 24.1523 236.538 25.3303C236.648 25.9798 237.098 26.3981 237.548 26.3981C239.227 26.3981 239.841 19.881 239.841 18.6371L239.852 18.6481Z" fill="white"/>
<path d="M34.0225 61.8354C33.9237 61.8354 33.8359 61.7363 33.8359 61.6373V52.1259C33.8359 52.0268 33.9347 51.9277 34.0225 51.9277H38.0831C41.156 51.9277 43.34 53.8542 43.34 56.8816C43.34 59.9089 41.4962 61.8354 38.1161 61.8354H34.0225ZM36.6454 54.4377V59.3255H38.0941C39.7293 59.3255 40.5305 58.3897 40.5305 56.8816C40.5305 55.3734 39.5318 54.4377 38.0831 54.4377H36.6454Z" fill="white"/>
<path d="M51.0986 58.0044V59.3255H56.2128C56.3006 59.3255 56.4323 59.4576 56.4323 59.5566V61.6042C56.4323 61.7033 56.3115 61.8354 56.2128 61.8354H48.4756C48.3769 61.8354 48.2891 61.7363 48.2891 61.6373V52.1259C48.2891 52.0268 48.3878 51.9277 48.4756 51.9277H56.1579C56.2567 51.9277 56.3774 52.0598 56.3774 52.1589V54.2065C56.3774 54.3056 56.2567 54.4377 56.1579 54.4377H51.0986V55.6596H55.686C55.7848 55.6596 55.9055 55.7917 55.9055 55.8908V57.7733C55.9055 57.8723 55.7848 58.0044 55.686 58.0044H51.0986Z" fill="white"/>
<path d="M63.4239 58.4892C63.6324 58.4892 63.7312 58.5882 63.819 58.7754C64.0714 59.3478 64.5323 59.612 65.5201 59.612C66.8151 59.612 67.287 59.2377 67.287 58.7534C67.287 58.4892 67.0675 58.2029 66.3322 58.1259L64.0056 57.8947C62.107 57.7186 60.9766 56.8269 60.9766 55.2417C60.9766 53.3152 62.5679 51.752 65.3664 51.752C68.165 51.752 69.5917 53.1721 69.5917 54.6362C69.5917 54.8454 69.438 55.0105 69.2295 55.0105H67.1114C66.9577 55.0105 66.859 54.9664 66.7822 54.7903C66.6285 54.449 66.1895 54.1188 65.3664 54.1188C64.3568 54.1188 63.7861 54.4931 63.7861 54.9444C63.7861 55.2306 63.9726 55.4398 64.5982 55.5059L66.8919 55.737C69.2295 55.9682 70.0965 57.1131 70.0965 58.5552C70.0965 60.3276 68.6478 61.9789 65.5201 61.9789C62.6667 61.9789 61.0095 60.6358 61.0095 59.0066V58.8745C61.0095 58.6543 61.1851 58.4782 61.3826 58.4782H63.4239V58.4892Z" fill="white"/>
<path d="M77.0645 58.4892C77.2731 58.4892 77.3718 58.5882 77.4596 58.7754C77.712 59.3478 78.173 59.612 79.1607 59.612C80.4557 59.612 80.9276 59.2377 80.9276 58.7534C80.9276 58.4892 80.7081 58.2029 79.9728 58.1259L77.6462 57.8947C75.7476 57.7186 74.6172 56.8269 74.6172 55.2417C74.6172 53.3152 76.2085 51.752 79.007 51.752C81.8056 51.752 83.2323 53.1721 83.2323 54.6362C83.2323 54.8454 83.0787 55.0105 82.8701 55.0105H80.752C80.5984 55.0105 80.4996 54.9664 80.4228 54.7903C80.2691 54.449 79.8301 54.1188 79.007 54.1188C77.9974 54.1188 77.4267 54.4931 77.4267 54.9444C77.4267 55.2306 77.6133 55.4398 78.2388 55.5059L80.5325 55.737C82.8701 55.9682 83.7371 57.1131 83.7371 58.5552C83.7371 60.3276 82.2885 61.9789 79.1607 61.9789C76.3073 61.9789 74.6501 60.6358 74.6501 59.0066V58.8745C74.6501 58.6543 74.8257 58.4782 75.0233 58.4782H77.0645V58.4892Z" fill="white"/>
<path d="M91.4853 58.0044V59.3255H96.5995C96.6873 59.3255 96.819 59.4576 96.819 59.5566V61.6042C96.819 61.7033 96.6982 61.8354 96.5995 61.8354H88.8623C88.7636 61.8354 88.6758 61.7363 88.6758 61.6373V52.1259C88.6758 52.0268 88.7746 51.9277 88.8623 51.9277H96.5446C96.6434 51.9277 96.7641 52.0598 96.7641 52.1589V54.2065C96.7641 54.3056 96.6434 54.4377 96.5446 54.4377H91.4853V55.6596H96.0727C96.1715 55.6596 96.2922 55.7917 96.2922 55.8908V57.7733C96.2922 57.8723 96.1715 58.0044 96.0727 58.0044H91.4853Z" fill="white"/>
<path d="M101.781 52.1259C101.781 52.0268 101.88 51.9277 101.968 51.9277H106.654C108.959 51.9277 110.605 53.3809 110.605 55.5936C110.605 57.0027 109.892 58.0044 108.794 58.5659V58.5989C108.794 58.5989 109.003 58.8961 109.167 59.1713L110.572 61.4611C110.649 61.5932 110.682 61.6483 110.682 61.7033C110.682 61.7583 110.638 61.8244 110.528 61.8244H107.653C107.576 61.8244 107.477 61.7914 107.433 61.7033L105.853 59.0943H104.591V61.6152C104.591 61.7143 104.492 61.8134 104.404 61.8134H101.968C101.869 61.8134 101.781 61.7143 101.781 61.6152V52.1039V52.1259ZM104.591 54.4377V56.7715H106.402C107.291 56.7715 107.795 56.2651 107.795 55.5936C107.795 54.9221 107.291 54.4377 106.402 54.4377H104.591Z" fill="white"/>
<path d="M115.126 54.4377C115.038 54.4377 114.906 54.3056 114.906 54.2065V52.1589C114.906 52.0598 115.027 51.9277 115.126 51.9277H124.114C124.213 51.9277 124.333 52.0598 124.333 52.1589V54.2065C124.333 54.3056 124.213 54.4377 124.114 54.4377H121.019V61.6373C121.019 61.7363 120.92 61.8354 120.833 61.8354H118.396C118.297 61.8354 118.21 61.7363 118.21 61.6373V54.4377H115.115H115.126Z" fill="white"/>
<path d="M137.611 58.4892C137.82 58.4892 137.919 58.5882 138.006 58.7754C138.259 59.3478 138.72 59.612 139.708 59.612C141.003 59.612 141.474 59.2377 141.474 58.7534C141.474 58.4892 141.255 58.2029 140.52 58.1259L138.193 57.8947C136.294 57.7186 135.164 56.8269 135.164 55.2417C135.164 53.3152 136.755 51.752 139.554 51.752C142.352 51.752 143.779 53.1721 143.779 54.6362C143.779 54.8454 143.626 55.0105 143.417 55.0105H141.299C141.145 55.0105 141.046 54.9664 140.97 54.7903C140.816 54.449 140.377 54.1188 139.554 54.1188C138.544 54.1188 137.974 54.4931 137.974 54.9444C137.974 55.2306 138.16 55.4398 138.786 55.5059L141.079 55.737C143.417 55.9682 144.284 57.1131 144.284 58.5552C144.284 60.3276 142.835 61.9789 139.708 61.9789C136.854 61.9789 135.197 60.6358 135.197 59.0066V58.8745C135.197 58.6543 135.373 58.4782 135.57 58.4782H137.611V58.4892Z" fill="white"/>
<path d="M148.29 54.4377C148.202 54.4377 148.07 54.3056 148.07 54.2065V52.1589C148.07 52.0598 148.191 51.9277 148.29 51.9277H157.278C157.377 51.9277 157.498 52.0598 157.498 52.1589V54.2065C157.498 54.3056 157.377 54.4377 157.278 54.4377H154.183V61.6373C154.183 61.7363 154.084 61.8354 153.997 61.8354H151.56C151.461 61.8354 151.374 61.7363 151.374 61.6373V54.4377H148.279H148.29Z" fill="white"/>
<path d="M168.694 52.1259C168.694 52.0268 168.793 51.9277 168.881 51.9277H171.317C171.416 51.9277 171.504 52.0268 171.504 52.1259V56.9917C171.504 60.1951 169.649 61.9895 166.576 61.9895C163.503 61.9895 161.648 60.1841 161.648 56.9917V52.1259C161.648 52.0268 161.747 51.9277 161.835 51.9277H164.271C164.359 51.9277 164.458 52.0268 164.458 52.1259V56.9476C164.458 58.6429 165.27 59.5016 166.576 59.5016C167.882 59.5016 168.694 58.6429 168.694 56.9476V52.1259Z" fill="white"/>
<path d="M176.519 61.8354C176.42 61.8354 176.332 61.7363 176.332 61.6373V52.1259C176.332 52.0268 176.431 51.9277 176.519 51.9277H180.579C183.652 51.9277 185.836 53.8542 185.836 56.8816C185.836 59.9089 183.992 61.8354 180.612 61.8354H176.519ZM179.142 54.4377V59.3255H180.59C182.225 59.3255 183.027 58.3897 183.027 56.8816C183.027 55.3734 182.028 54.4377 180.579 54.4377H179.142Z" fill="white"/>
<path d="M193.122 61.6373C193.122 61.7363 193.023 61.8354 192.935 61.8354H190.499C190.4 61.8354 190.312 61.7363 190.312 61.6373V52.1259C190.312 52.0268 190.411 51.9277 190.499 51.9277H192.935C193.034 51.9277 193.122 52.0268 193.122 52.1259V61.6373Z" fill="white"/>
<path d="M208.123 56.8826C208.123 60.0861 205.709 62.0016 202.866 62.0016C200.024 62.0016 197.609 60.0861 197.609 56.8826C197.609 53.6792 200.024 51.7637 202.866 51.7637C205.709 51.7637 208.123 53.6792 208.123 56.8826ZM200.408 56.8826C200.408 58.5009 201.549 59.4917 202.855 59.4917C204.161 59.4917 205.303 58.5009 205.303 56.8826C205.303 55.2644 204.161 54.2736 202.855 54.2736C201.549 54.2736 200.408 55.2864 200.408 56.8826Z" fill="white"/>
<path d="M214.635 58.4892C214.843 58.4892 214.942 58.5882 215.03 58.7754C215.282 59.3478 215.743 59.612 216.731 59.612C218.026 59.612 218.498 59.2377 218.498 58.7534C218.498 58.4892 218.278 58.2029 217.543 58.1259L215.217 57.8947C213.318 57.7186 212.188 56.8269 212.188 55.2417C212.188 53.3152 213.779 51.752 216.577 51.752C219.376 51.752 220.803 53.1721 220.803 54.6362C220.803 54.8454 220.649 55.0105 220.44 55.0105H218.322C218.169 55.0105 218.07 54.9664 217.993 54.7903C217.839 54.449 217.4 54.1188 216.577 54.1188C215.568 54.1188 214.997 54.4931 214.997 54.9444C214.997 55.2306 215.184 55.4398 215.809 55.5059L218.103 55.737C220.44 55.9682 221.307 57.1131 221.307 58.5552C221.307 60.3276 219.859 61.9789 216.731 61.9789C213.878 61.9789 212.22 60.6358 212.22 59.0066V58.8745C212.22 58.6543 212.396 58.4782 212.594 58.4782H214.635V58.4892Z" fill="white"/>
</g>
<defs>
<clipPath id="clip0_270_9">
<rect width="252" height="62" fill="white"/>
</clipPath>
</defs>
</svg>
